<svg width="1453" height="363" viewBox="0 0 1453 363" fill="none" xmlns="http://www.w3.org/2000/svg">
<path fill-rule="evenodd" clip-rule="evenodd" d="M253 179.155L303 170.629C353 162.103 453 145.051 553 140.788C653 136.525 753 145.051 853 149.314C953 153.577 1053 153.577 1153 132.263C1253 110.948 1353 68.3187 1403 47.0041L1453 25.6895V281.465H1403C1353 281.465 1253 281.465 1153 281.465C1053 281.465 953 281.465 853 281.465C753 281.465 653 281.465 553 281.465C453 281.465 353 281.465 303 281.465H253V179.155Z" fill="#FFC845" fill-opacity="0.4"/>
<path fill-rule="evenodd" clip-rule="evenodd" d="M0 0L60.5417 33.6111C121.083 67.2222 242.167 134.444 363.25 154.611C484.333 174.778 605.417 147.889 726.5 168.056C847.583 188.222 968.667 255.444 1089.75 248.722C1210.83 242 1331.92 161.333 1392.46 121L1453 80.6667V363H1392.46C1331.92 363 1210.83 363 1089.75 363C968.667 363 847.583 363 726.5 363C605.417 363 484.333 363 363.25 363C242.167 363 121.083 363 60.5417 363H0V0Z" fill="#FFC845"/>
<path d="M33.272 335V326.24H34.448V335H33.272ZM34.208 331.1V330.044L37.964 330.032V331.088L34.208 331.1ZM34.208 327.296V326.24H38.168V327.296H34.208ZM42.6537 335.216C42.0937 335.216 41.6017 335.12 41.1777 334.928C40.7537 334.736 40.3937 334.484 40.0977 334.172C39.8097 333.852 39.5897 333.496 39.4377 333.104C39.2937 332.712 39.2217 332.312 39.2217 331.904V331.688C39.2217 331.28 39.2977 330.88 39.4497 330.488C39.6017 330.088 39.8257 329.732 40.1217 329.42C40.4177 329.1 40.7777 328.848 41.2017 328.664C41.6257 328.472 42.1097 328.376 42.6537 328.376C43.1977 328.376 43.6817 328.472 44.1057 328.664C44.5297 328.848 44.8897 329.1 45.1857 329.42C45.4817 329.732 45.7057 330.088 45.8577 330.488C46.0097 330.88 46.0857 331.28 46.0857 331.688V331.904C46.0857 332.312 46.0097 332.712 45.8577 333.104C45.7137 333.496 45.4937 333.852 45.1977 334.172C44.9097 334.484 44.5537 334.736 44.1297 334.928C43.7057 335.12 43.2137 335.216 42.6537 335.216ZM42.6537 334.184C43.1337 334.184 43.5417 334.08 43.8777 333.872C44.2217 333.656 44.4817 333.368 44.6577 333.008C44.8417 332.648 44.9337 332.244 44.9337 331.796C44.9337 331.34 44.8417 330.932 44.6577 330.572C44.4737 330.212 44.2097 329.928 43.8657 329.72C43.5297 329.512 43.1257 329.408 42.6537 329.408C42.1897 329.408 41.7857 329.512 41.4417 329.72C41.0977 329.928 40.8337 330.212 40.6497 330.572C40.4657 330.932 40.3737 331.34 40.3737 331.796C40.3737 332.244 40.4617 332.648 40.6377 333.008C40.8217 333.368 41.0817 333.656 41.4177 333.872C41.7617 334.08 42.1737 334.184 42.6537 334.184ZM50.763 335.216C50.203 335.216 49.711 335.12 49.287 334.928C48.863 334.736 48.503 334.484 48.207 334.172C47.919 333.852 47.699 333.496 47.547 333.104C47.403 332.712 47.331 332.312 47.331 331.904V331.688C47.331 331.28 47.407 330.88 47.559 330.488C47.711 330.088 47.935 329.732 48.231 329.42C48.527 329.1 48.887 328.848 49.311 328.664C49.735 328.472 50.219 328.376 50.763 328.376C51.307 328.376 51.791 328.472 52.215 328.664C52.639 328.848 52.999 329.1 53.295 329.42C53.591 329.732 53.815 330.088 53.967 330.488C54.119 330.88 54.195 331.28 54.195 331.688V331.904C54.195 332.312 54.119 332.712 53.967 333.104C53.823 333.496 53.603 333.852 53.307 334.172C53.019 334.484 52.663 334.736 52.239 334.928C51.815 335.12 51.323 335.216 50.763 335.216ZM50.763 334.184C51.243 334.184 51.651 334.08 51.987 333.872C52.331 333.656 52.591 333.368 52.767 333.008C52.951 332.648 53.043 332.244 53.043 331.796C53.043 331.34 52.951 330.932 52.767 330.572C52.583 330.212 52.319 329.928 51.975 329.72C51.639 329.512 51.235 329.408 50.763 329.408C50.299 329.408 49.895 329.512 49.551 329.72C49.207 329.928 48.943 330.212 48.759 330.572C48.575 330.932 48.483 331.34 48.483 331.796C48.483 332.244 48.571 332.648 48.747 333.008C48.931 333.368 49.191 333.656 49.527 333.872C49.871 334.08 50.283 334.184 50.763 334.184ZM58.5964 335.216C58.1404 335.216 57.7204 335.132 57.3364 334.964C56.9524 334.796 56.6164 334.56 56.3284 334.256C56.0484 333.952 55.8284 333.6 55.6684 333.2C55.5164 332.8 55.4404 332.368 55.4404 331.904V331.688C55.4404 331.232 55.5164 330.804 55.6684 330.404C55.8204 330.004 56.0324 329.652 56.3044 329.348C56.5844 329.044 56.9124 328.808 57.2884 328.64C57.6724 328.464 58.0964 328.376 58.5604 328.376C59.0484 328.376 59.4924 328.48 59.8924 328.688C60.2924 328.888 60.6204 329.204 60.8764 329.636C61.1324 330.068 61.2764 330.628 61.3084 331.316L60.8284 330.548V326.24H61.9804V335H61.0684V332.156H61.4044C61.3724 332.884 61.2204 333.476 60.9484 333.932C60.6764 334.38 60.3324 334.708 59.9164 334.916C59.5084 335.116 59.0684 335.216 58.5964 335.216ZM58.7524 334.208C59.1444 334.208 59.5004 334.12 59.8204 333.944C60.1404 333.768 60.3964 333.516 60.5884 333.188C60.7804 332.852 60.8764 332.46 60.8764 332.012V331.46C60.8764 331.02 60.7764 330.648 60.5764 330.344C60.3844 330.032 60.1244 329.796 59.7964 329.636C59.4764 329.468 59.1244 329.384 58.7404 329.384C58.3164 329.384 57.9404 329.484 57.6124 329.684C57.2924 329.884 57.0404 330.164 56.8564 330.524C56.6804 330.884 56.5924 331.308 56.5924 331.796C56.5924 332.284 56.6844 332.712 56.8684 333.08C57.0524 333.44 57.3084 333.72 57.6364 333.92C57.9644 334.112 58.3364 334.208 58.7524 334.208ZM64.5058 335V328.592H65.6578V335H64.5058ZM63.5218 329.504V328.592H65.6578V329.504H63.5218ZM64.8298 327.56C64.5738 327.56 64.3818 327.492 64.2538 327.356C64.1338 327.22 64.0738 327.048 64.0738 326.84C64.0738 326.632 64.1338 326.46 64.2538 326.324C64.3818 326.188 64.5738 326.12 64.8298 326.12C65.0858 326.12 65.2738 326.188 65.3938 326.324C65.5218 326.46 65.5858 326.632 65.5858 326.84C65.5858 327.048 65.5218 327.22 65.3938 327.356C65.2738 327.492 65.0858 327.56 64.8298 327.56ZM70.6093 335.216C70.0493 335.216 69.5653 335.12 69.1573 334.928C68.7493 334.736 68.4173 334.484 68.1613 334.172C67.9053 333.852 67.7133 333.496 67.5853 333.104C67.4653 332.712 67.4053 332.312 67.4053 331.904V331.688C67.4053 331.272 67.4653 330.868 67.5853 330.476C67.7133 330.084 67.9053 329.732 68.1613 329.42C68.4173 329.1 68.7413 328.848 69.1333 328.664C69.5333 328.472 70.0013 328.376 70.5373 328.376C71.2333 328.376 71.8053 328.528 72.2533 328.832C72.7093 329.128 73.0453 329.512 73.2613 329.984C73.4853 330.456 73.5973 330.96 73.5973 331.496V332.012H67.9093V331.148H72.7573L72.4933 331.616C72.4933 331.16 72.4213 330.768 72.2773 330.44C72.1333 330.104 71.9173 329.844 71.6293 329.66C71.3413 329.476 70.9773 329.384 70.5373 329.384C70.0813 329.384 69.7013 329.488 69.3973 329.696C69.1013 329.904 68.8773 330.188 68.7253 330.548C68.5813 330.908 68.5093 331.324 68.5093 331.796C68.5093 332.252 68.5813 332.664 68.7253 333.032C68.8773 333.392 69.1093 333.68 69.4213 333.896C69.7333 334.104 70.1293 334.208 70.6093 334.208C71.1133 334.208 71.5213 334.096 71.8333 333.872C72.1533 333.648 72.3453 333.388 72.4093 333.092H73.4893C73.4013 333.532 73.2253 333.912 72.9613 334.232C72.6973 334.552 72.3653 334.796 71.9653 334.964C71.5653 335.132 71.1133 335.216 70.6093 335.216ZM77.3329 335.192C76.4929 335.192 75.8409 335.012 75.3769 334.652C74.9209 334.292 74.6849 333.8 74.6689 333.176H75.7489C75.7649 333.424 75.8889 333.66 76.1209 333.884C76.3609 334.1 76.7649 334.208 77.3329 334.208C77.8449 334.208 78.2369 334.108 78.5089 333.908C78.7809 333.7 78.9169 333.448 78.9169 333.152C78.9169 332.888 78.8169 332.684 78.6169 332.54C78.4169 332.388 78.0929 332.288 77.6449 332.24L76.9489 332.168C76.3409 332.104 75.8449 331.924 75.4609 331.628C75.0769 331.324 74.8849 330.9 74.8849 330.356C74.8849 329.948 74.9889 329.6 75.1969 329.312C75.4049 329.016 75.6929 328.792 76.0609 328.64C76.4289 328.48 76.8529 328.4 77.3329 328.4C78.0529 328.4 78.6369 328.56 79.0849 328.88C79.5329 329.2 79.7649 329.676 79.7809 330.308H78.7009C78.6929 330.052 78.5729 329.836 78.3409 329.66C78.1169 329.476 77.7809 329.384 77.3329 329.384C76.8849 329.384 76.5449 329.476 76.3129 329.66C76.0809 329.844 75.9649 330.076 75.9649 330.356C75.9649 330.596 76.0449 330.788 76.2049 330.932C76.3729 331.076 76.6449 331.168 77.0209 331.208L77.7169 331.28C78.4049 331.352 78.9569 331.544 79.3729 331.856C79.7889 332.16 79.9969 332.592 79.9969 333.152C79.9969 333.552 79.8809 333.908 79.6489 334.22C79.4249 334.524 79.1129 334.764 78.7129 334.94C78.3129 335.108 77.8529 335.192 77.3329 335.192ZM87.625 333.608C86.977 333.608 86.417 333.496 85.945 333.272C85.473 333.048 85.085 332.752 84.781 332.384C84.485 332.016 84.261 331.616 84.109 331.184C83.965 330.744 83.893 330.316 83.893 329.9V329.684C83.893 329.252 83.969 328.82 84.121 328.388C84.273 327.948 84.501 327.548 84.805 327.188C85.109 326.828 85.497 326.54 85.969 326.324C86.441 326.108 86.993 326 87.625 326C88.265 326 88.817 326.108 89.281 326.324C89.753 326.54 90.141 326.828 90.445 327.188C90.749 327.548 90.977 327.948 91.129 328.388C91.281 328.82 91.357 329.252 91.357 329.684V329.9C91.357 330.316 91.281 330.744 91.129 331.184C90.985 331.616 90.761 332.016 90.457 332.384C90.161 332.752 89.777 333.048 89.305 333.272C88.833 333.496 88.273 333.608 87.625 333.608ZM87.625 332.96C88.241 332.96 88.773 332.816 89.221 332.528C89.677 332.232 90.025 331.844 90.265 331.364C90.513 330.884 90.637 330.364 90.637 329.804C90.637 329.22 90.513 328.692 90.265 328.22C90.025 327.74 89.677 327.36 89.221 327.08C88.773 326.792 88.241 326.648 87.625 326.648C87.009 326.648 86.473 326.792 86.017 327.08C85.569 327.36 85.221 327.74 84.973 328.22C84.733 328.692 84.613 329.22 84.613 329.804C84.613 330.364 84.733 330.884 84.973 331.364C85.221 331.844 85.569 332.232 86.017 332.528C86.473 332.816 87.009 332.96 87.625 332.96ZM87.697 332C87.217 332 86.829 331.892 86.533 331.676C86.245 331.452 86.037 331.176 85.909 330.848C85.781 330.52 85.717 330.2 85.717 329.888V329.732C85.717 329.396 85.785 329.068 85.921 328.748C86.065 328.42 86.281 328.152 86.569 327.944C86.865 327.736 87.241 327.632 87.697 327.632C88.193 327.632 88.609 327.772 88.945 328.052C89.281 328.324 89.465 328.704 89.497 329.192H88.753C88.721 328.936 88.617 328.732 88.441 328.58C88.265 328.428 88.017 328.352 87.697 328.352C87.281 328.352 86.981 328.488 86.797 328.76C86.621 329.032 86.533 329.38 86.533 329.804C86.533 330.076 86.569 330.324 86.641 330.548C86.721 330.772 86.845 330.952 87.013 331.088C87.189 331.216 87.417 331.28 87.697 331.28C88.017 331.28 88.269 331.2 88.453 331.04C88.645 330.872 88.757 330.66 88.789 330.404H89.533C89.509 330.9 89.321 331.292 88.969 331.58C88.617 331.86 88.193 332 87.697 332ZM95.5956 335V333.56C95.5956 333.208 95.6436 332.908 95.7396 332.66C95.8436 332.412 96.0196 332.188 96.2676 331.988C96.5156 331.78 96.8516 331.58 97.2756 331.388L98.9196 330.632C99.3196 330.448 99.6356 330.212 99.8676 329.924C100.1 329.628 100.216 329.248 100.216 328.784C100.216 328.224 100.06 327.788 99.7476 327.476C99.4356 327.164 98.9956 327.008 98.4276 327.008C97.8676 327.008 97.4276 327.164 97.1076 327.476C96.7876 327.788 96.6276 328.224 96.6276 328.784H95.4996C95.4996 328.28 95.6036 327.816 95.8116 327.392C96.0276 326.968 96.3516 326.632 96.7836 326.384C97.2156 326.128 97.7636 326 98.4276 326C99.0916 326 99.6356 326.128 100.06 326.384C100.492 326.632 100.812 326.96 101.02 327.368C101.236 327.776 101.344 328.22 101.344 328.7V328.868C101.344 329.5 101.16 330.032 100.792 330.464C100.432 330.896 99.9436 331.252 99.3276 331.532L97.6836 332.288C97.3156 332.456 97.0676 332.624 96.9396 332.792C96.8116 332.96 96.7476 333.184 96.7476 333.464V334.568L96.4356 334.016H101.452V335H95.5956ZM106.566 335.216C105.91 335.216 105.35 335.104 104.886 334.88C104.43 334.648 104.058 334.336 103.77 333.944C103.49 333.552 103.286 333.1 103.158 332.588C103.03 332.068 102.966 331.52 102.966 330.944V330.296C102.966 329.488 103.09 328.76 103.338 328.112C103.594 327.464 103.986 326.952 104.514 326.576C105.05 326.192 105.734 326 106.566 326C107.398 326 108.078 326.192 108.606 326.576C109.134 326.952 109.522 327.464 109.77 328.112C110.026 328.76 110.154 329.488 110.154 330.296V330.944C110.154 331.52 110.09 332.068 109.962 332.588C109.834 333.1 109.626 333.552 109.338 333.944C109.058 334.336 108.69 334.648 108.234 334.88C107.778 335.104 107.222 335.216 106.566 335.216ZM106.566 334.16C107.398 334.16 108.006 333.88 108.39 333.32C108.782 332.752 108.978 331.856 108.978 330.632C108.978 329.352 108.778 328.436 108.378 327.884C107.986 327.332 107.382 327.056 106.566 327.056C105.742 327.056 105.13 327.332 104.73 327.884C104.338 328.436 104.142 329.344 104.142 330.608C104.142 331.84 104.338 332.74 104.73 333.308C105.122 333.876 105.734 334.16 106.566 334.16ZM111.932 335V333.56C111.932 333.208 111.98 332.908 112.076 332.66C112.18 332.412 112.356 332.188 112.604 331.988C112.852 331.78 113.188 331.58 113.612 331.388L115.256 330.632C115.656 330.448 115.972 330.212 116.204 329.924C116.436 329.628 116.552 329.248 116.552 328.784C116.552 328.224 116.396 327.788 116.084 327.476C115.772 327.164 115.332 327.008 114.764 327.008C114.204 327.008 113.764 327.164 113.444 327.476C113.124 327.788 112.964 328.224 112.964 328.784H111.836C111.836 328.28 111.94 327.816 112.148 327.392C112.364 326.968 112.688 326.632 113.12 326.384C113.552 326.128 114.1 326 114.764 326C115.428 326 115.972 326.128 116.396 326.384C116.828 326.632 117.148 326.96 117.356 327.368C117.572 327.776 117.68 328.22 117.68 328.7V328.868C117.68 329.5 117.496 330.032 117.128 330.464C116.768 330.896 116.28 331.252 115.664 331.532L114.02 332.288C113.652 332.456 113.404 332.624 113.276 332.792C113.148 332.96 113.084 333.184 113.084 333.464V334.568L112.772 334.016H117.788V335H111.932ZM122.026 335.216C121.37 335.216 120.814 335.088 120.358 334.832C119.902 334.576 119.554 334.236 119.314 333.812C119.082 333.388 118.966 332.928 118.966 332.432H120.094C120.094 332.976 120.266 333.408 120.61 333.728C120.962 334.048 121.434 334.208 122.026 334.208C122.418 334.208 122.758 334.136 123.046 333.992C123.334 333.848 123.558 333.644 123.718 333.38C123.878 333.108 123.958 332.792 123.958 332.432C123.958 331.888 123.782 331.448 123.43 331.112C123.086 330.776 122.622 330.608 122.038 330.608C121.79 330.608 121.574 330.64 121.39 330.704C121.214 330.76 121.058 330.832 120.922 330.92L120.346 329.888L123.694 327.44L123.574 327.224H119.314V326.24H124.654V327.836L121.882 329.852L121.042 329.888C121.178 329.84 121.326 329.8 121.486 329.768C121.654 329.736 121.85 329.72 122.074 329.72C122.714 329.72 123.258 329.84 123.706 330.08C124.154 330.32 124.494 330.64 124.726 331.04C124.966 331.44 125.086 331.876 125.086 332.348V332.516C125.086 332.98 124.966 333.42 124.726 333.836C124.494 334.244 124.15 334.576 123.694 334.832C123.246 335.088 122.69 335.216 122.026 335.216ZM126.685 335V333.536H128.077V335H126.685ZM132.016 335L135.172 326.24H137.164L140.416 335H139.204L136.264 327.008L136.84 327.296H135.424L136.036 327.008L133.192 335H132.016ZM133.9 332.384L134.296 331.328H138.076L138.472 332.384H133.9ZM141.856 335V326.24H143.008V335H141.856ZM140.968 327.152V326.24H143.008V327.152H140.968ZM145.289 335V326.24H146.441V335H145.289ZM144.401 327.152V326.24H146.441V327.152H144.401ZM151.549 335V326.192H152.725V335H151.549ZM156.961 335L154.057 331.1H155.437L158.389 335H156.961ZM152.281 331.832V330.788H154.633C155.001 330.788 155.317 330.712 155.581 330.56C155.845 330.408 156.049 330.2 156.193 329.936C156.337 329.664 156.409 329.356 156.409 329.012C156.409 328.668 156.337 328.364 156.193 328.1C156.049 327.828 155.845 327.616 155.581 327.464C155.317 327.304 155.001 327.224 154.633 327.224H152.281V326.192H154.417C155.057 326.192 155.617 326.288 156.097 326.48C156.577 326.672 156.949 326.968 157.213 327.368C157.477 327.768 157.609 328.284 157.609 328.916V329.108C157.609 329.74 157.473 330.256 157.201 330.656C156.937 331.056 156.565 331.352 156.085 331.544C155.613 331.736 155.057 331.832 154.417 331.832H152.281ZM160.096 335V328.592H161.248V335H160.096ZM159.112 329.504V328.592H161.248V329.504H159.112ZM160.42 327.56C160.164 327.56 159.972 327.492 159.844 327.356C159.724 327.22 159.664 327.048 159.664 326.84C159.664 326.632 159.724 326.46 159.844 326.324C159.972 326.188 160.164 326.12 160.42 326.12C160.676 326.12 160.864 326.188 160.984 326.324C161.112 326.46 161.176 326.632 161.176 326.84C161.176 327.048 161.112 327.22 160.984 327.356C160.864 327.492 160.676 327.56 160.42 327.56ZM165.899 337.496C165.603 337.496 165.303 337.484 164.999 337.46C164.703 337.436 164.419 337.404 164.147 337.364V336.392C164.435 336.432 164.735 336.464 165.047 336.488C165.367 336.52 165.667 336.536 165.947 336.536C166.531 336.536 166.995 336.456 167.339 336.296C167.691 336.144 167.943 335.9 168.095 335.564C168.255 335.236 168.335 334.812 168.335 334.292V333.068L168.719 332.156C168.695 332.804 168.559 333.344 168.311 333.776C168.063 334.2 167.739 334.52 167.339 334.736C166.947 334.944 166.511 335.048 166.031 335.048C165.583 335.048 165.171 334.964 164.795 334.796C164.427 334.62 164.107 334.38 163.835 334.076C163.571 333.772 163.363 333.424 163.211 333.032C163.067 332.632 162.995 332.212 162.995 331.772V331.556C162.995 331.108 163.071 330.692 163.223 330.308C163.375 329.916 163.587 329.576 163.859 329.288C164.131 329 164.455 328.776 164.831 328.616C165.215 328.456 165.635 328.376 166.091 328.376C166.627 328.376 167.099 328.492 167.507 328.724C167.915 328.948 168.235 329.28 168.467 329.72C168.707 330.152 168.839 330.684 168.863 331.316L168.527 331.328V328.592H169.439V334.244C169.439 335.012 169.319 335.632 169.079 336.104C168.847 336.584 168.471 336.936 167.951 337.16C167.439 337.384 166.755 337.496 165.899 337.496ZM166.247 333.992C166.631 333.992 166.979 333.908 167.291 333.74C167.611 333.572 167.863 333.332 168.047 333.02C168.239 332.7 168.335 332.32 168.335 331.88V331.328C168.335 330.896 168.235 330.532 168.035 330.236C167.843 329.94 167.591 329.716 167.279 329.564C166.967 329.412 166.627 329.336 166.259 329.336C165.843 329.336 165.475 329.432 165.155 329.624C164.835 329.816 164.587 330.088 164.411 330.44C164.235 330.784 164.147 331.192 164.147 331.664C164.147 332.136 164.235 332.548 164.411 332.9C164.595 333.252 164.843 333.524 165.155 333.716C165.475 333.9 165.839 333.992 166.247 333.992ZM171.573 335V326.24H172.725V331.472H172.437C172.437 330.84 172.517 330.296 172.677 329.84C172.845 329.376 173.101 329.02 173.445 328.772C173.789 328.524 174.229 328.4 174.765 328.4H174.813C175.581 328.4 176.161 328.656 176.553 329.168C176.945 329.672 177.141 330.396 177.141 331.34V335H175.989V331.1C175.989 330.58 175.841 330.176 175.545 329.888C175.257 329.6 174.881 329.456 174.417 329.456C173.905 329.456 173.493 329.628 173.181 329.972C172.877 330.308 172.725 330.752 172.725 331.304V335H171.573ZM181.745 335.072C181.265 335.072 180.849 335.004 180.497 334.868C180.153 334.732 179.885 334.5 179.693 334.172C179.509 333.836 179.417 333.384 179.417 332.816V326.648H180.521V332.96C180.521 333.304 180.613 333.572 180.797 333.764C180.989 333.948 181.257 334.04 181.601 334.04H182.729V335.072H181.745ZM178.313 329.456V328.592H182.729V329.456H178.313ZM190.1 335.216C189.372 335.216 188.752 335.096 188.24 334.856C187.728 334.616 187.336 334.284 187.064 333.86C186.792 333.436 186.656 332.956 186.656 332.42H187.832C187.832 332.684 187.9 332.948 188.036 333.212C188.18 333.476 188.416 333.696 188.744 333.872C189.08 334.048 189.532 334.136 190.1 334.136C190.628 334.136 191.06 334.06 191.396 333.908C191.732 333.748 191.98 333.544 192.14 333.296C192.3 333.04 192.38 332.764 192.38 332.468C192.38 332.108 192.224 331.812 191.912 331.58C191.6 331.34 191.144 331.192 190.544 331.136L189.572 331.052C188.796 330.988 188.176 330.748 187.712 330.332C187.248 329.916 187.016 329.368 187.016 328.688C187.016 328.152 187.144 327.684 187.4 327.284C187.664 326.884 188.028 326.572 188.492 326.348C188.956 326.116 189.496 326 190.112 326C190.72 326 191.256 326.112 191.72 326.336C192.184 326.56 192.544 326.876 192.8 327.284C193.064 327.684 193.196 328.164 193.196 328.724H192.02C192.02 328.444 191.952 328.18 191.816 327.932C191.688 327.684 191.484 327.48 191.204 327.32C190.924 327.16 190.56 327.08 190.112 327.08C189.68 327.08 189.32 327.156 189.032 327.308C188.752 327.46 188.54 327.66 188.396 327.908C188.26 328.148 188.192 328.408 188.192 328.688C188.192 329.008 188.316 329.292 188.564 329.54C188.812 329.788 189.18 329.932 189.668 329.972L190.64 330.056C191.24 330.104 191.756 330.232 192.188 330.44C192.628 330.64 192.964 330.912 193.196 331.256C193.436 331.592 193.556 331.996 193.556 332.468C193.556 333.004 193.412 333.48 193.124 333.896C192.836 334.312 192.432 334.636 191.912 334.868C191.392 335.1 190.788 335.216 190.1 335.216ZM198.086 335.216C197.526 335.216 197.042 335.12 196.634 334.928C196.226 334.736 195.894 334.484 195.638 334.172C195.382 333.852 195.19 333.496 195.062 333.104C194.942 332.712 194.882 332.312 194.882 331.904V331.688C194.882 331.272 194.942 330.868 195.062 330.476C195.19 330.084 195.382 329.732 195.638 329.42C195.894 329.1 196.218 328.848 196.61 328.664C197.01 328.472 197.478 328.376 198.014 328.376C198.71 328.376 199.282 328.528 199.73 328.832C200.186 329.128 200.522 329.512 200.738 329.984C200.962 330.456 201.074 330.96 201.074 331.496V332.012H195.386V331.148H200.234L199.97 331.616C199.97 331.16 199.898 330.768 199.754 330.44C199.61 330.104 199.394 329.844 199.106 329.66C198.818 329.476 198.454 329.384 198.014 329.384C197.558 329.384 197.178 329.488 196.874 329.696C196.578 329.904 196.354 330.188 196.202 330.548C196.058 330.908 195.986 331.324 195.986 331.796C195.986 332.252 196.058 332.664 196.202 333.032C196.354 333.392 196.586 333.68 196.898 333.896C197.21 334.104 197.606 334.208 198.086 334.208C198.59 334.208 198.998 334.096 199.31 333.872C199.63 333.648 199.822 333.388 199.886 333.092H200.966C200.878 333.532 200.702 333.912 200.438 334.232C200.174 334.552 199.842 334.796 199.442 334.964C199.042 335.132 198.59 335.216 198.086 335.216ZM202.709 335V328.592H203.621V331.232H203.573C203.573 330.296 203.777 329.612 204.185 329.18C204.601 328.74 205.221 328.52 206.045 328.52H206.261V329.552H205.853C205.213 329.552 204.721 329.724 204.377 330.068C204.033 330.404 203.861 330.892 203.861 331.532V335H202.709ZM209.21 335L207.026 328.592H208.226L210.362 335H209.21ZM209.498 335V334.088H210.89V335H209.498ZM210.05 335L211.91 328.592H213.038L211.142 335H210.05ZM217.152 335.216C216.592 335.216 216.108 335.12 215.7 334.928C215.292 334.736 214.96 334.484 214.704 334.172C214.448 333.852 214.256 333.496 214.128 333.104C214.008 332.712 213.948 332.312 213.948 331.904V331.688C213.948 331.272 214.008 330.868 214.128 330.476C214.256 330.084 214.448 329.732 214.704 329.42C214.96 329.1 215.284 328.848 215.676 328.664C216.076 328.472 216.544 328.376 217.08 328.376C217.776 328.376 218.348 328.528 218.796 328.832C219.252 329.128 219.588 329.512 219.804 329.984C220.028 330.456 220.14 330.96 220.14 331.496V332.012H214.452V331.148H219.3L219.036 331.616C219.036 331.16 218.964 330.768 218.82 330.44C218.676 330.104 218.46 329.844 218.172 329.66C217.884 329.476 217.52 329.384 217.08 329.384C216.624 329.384 216.244 329.488 215.94 329.696C215.644 329.904 215.42 330.188 215.268 330.548C215.124 330.908 215.052 331.324 215.052 331.796C215.052 332.252 215.124 332.664 215.268 333.032C215.42 333.392 215.652 333.68 215.964 333.896C216.276 334.104 216.672 334.208 217.152 334.208C217.656 334.208 218.064 334.096 218.376 333.872C218.696 333.648 218.888 333.388 218.952 333.092H220.032C219.944 333.532 219.768 333.912 219.504 334.232C219.24 334.552 218.908 334.796 218.508 334.964C218.108 335.132 217.656 335.216 217.152 335.216ZM224.452 335.216C223.996 335.216 223.576 335.132 223.192 334.964C222.808 334.796 222.472 334.56 222.184 334.256C221.904 333.952 221.684 333.6 221.524 333.2C221.372 332.8 221.296 332.368 221.296 331.904V331.688C221.296 331.232 221.372 330.804 221.524 330.404C221.676 330.004 221.888 329.652 222.16 329.348C222.44 329.044 222.768 328.808 223.144 328.64C223.528 328.464 223.952 328.376 224.416 328.376C224.904 328.376 225.348 328.48 225.748 328.688C226.148 328.888 226.476 329.204 226.732 329.636C226.988 330.068 227.132 330.628 227.164 331.316L226.684 330.548V326.24H227.836V335H226.924V332.156H227.26C227.228 332.884 227.076 333.476 226.804 333.932C226.532 334.38 226.188 334.708 225.772 334.916C225.364 335.116 224.924 335.216 224.452 335.216ZM224.608 334.208C225 334.208 225.356 334.12 225.676 333.944C225.996 333.768 226.252 333.516 226.444 333.188C226.636 332.852 226.732 332.46 226.732 332.012V331.46C226.732 331.02 226.632 330.648 226.432 330.344C226.24 330.032 225.98 329.796 225.652 329.636C225.332 329.468 224.98 329.384 224.596 329.384C224.172 329.384 223.796 329.484 223.468 329.684C223.148 329.884 222.896 330.164 222.712 330.524C222.536 330.884 222.448 331.308 222.448 331.796C222.448 332.284 222.54 332.712 222.724 333.08C222.908 333.44 223.164 333.72 223.492 333.92C223.82 334.112 224.192 334.208 224.608 334.208ZM229.821 335V333.536H231.213V335H229.821Z" fill="white"/>
</svg>
