<svg width="25" height="23" viewBox="0 0 25 23" fill="none" xmlns="http://www.w3.org/2000/svg">
<path d="M12.5056 5.88452C8.95651 5.88452 6.09378 8.3894 6.09378 11.4949C6.09378 14.6003 8.95651 17.1052 12.5056 17.1052C16.0547 17.1052 18.9174 14.6003 18.9174 11.4949C18.9174 8.3894 16.0547 5.88452 12.5056 5.88452ZM12.5056 15.1423C10.2121 15.1423 8.33709 13.5066 8.33709 11.4949C8.33709 9.48315 10.2065 7.84741 12.5056 7.84741C14.8047 7.84741 16.6741 9.48315 16.6741 11.4949C16.6741 13.5066 14.7991 15.1423 12.5056 15.1423ZM20.6753 5.65503C20.6753 6.38257 20.0056 6.96362 19.1797 6.96362C18.3482 6.96362 17.6842 6.37769 17.6842 5.65503C17.6842 4.93237 18.3538 4.34644 19.1797 4.34644C20.0056 4.34644 20.6753 4.93237 20.6753 5.65503ZM24.9219 6.98315C24.827 5.23022 24.3695 3.67749 22.9018 2.39819C21.4398 1.1189 19.6652 0.718506 17.6619 0.630615C15.5971 0.528076 9.40852 0.528076 7.34378 0.630615C5.34602 0.713623 3.57146 1.11401 2.10383 2.39331C0.636196 3.67261 0.184187 5.22534 0.0837402 6.97827C-0.0334473 8.78491 -0.0334473 14.2 0.0837402 16.0066C0.178606 17.7595 0.636196 19.3123 2.10383 20.5916C3.57146 21.8708 5.34044 22.2712 7.34378 22.3591C9.40852 22.4617 15.5971 22.4617 17.6619 22.3591C19.6652 22.2761 21.4398 21.8757 22.9018 20.5916C24.3639 19.3123 24.8215 17.7595 24.9219 16.0066C25.0391 14.2 25.0391 8.78979 24.9219 6.98315ZM22.2545 17.9451C21.8192 18.9021 20.9766 19.6394 19.8773 20.0251C18.2311 20.5964 14.3248 20.4646 12.5056 20.4646C10.6864 20.4646 6.77459 20.5916 5.13396 20.0251C4.04021 19.6443 3.19758 18.907 2.75673 17.9451C2.10383 16.5046 2.2545 13.0867 2.2545 11.4949C2.2545 9.90308 2.10941 6.48022 2.75673 5.04468C3.192 4.08765 4.03463 3.35034 5.13396 2.9646C6.78017 2.39331 10.6864 2.52515 12.5056 2.52515C14.3248 2.52515 18.2366 2.39819 19.8773 2.9646C20.971 3.34546 21.8137 4.08276 22.2545 5.04468C22.9074 6.48511 22.7567 9.90308 22.7567 11.4949C22.7567 13.0867 22.9074 16.5095 22.2545 17.9451Z" fill="black"/>
</svg>
