<svg width="176" height="51" viewBox="0 0 176 51" fill="none" xmlns="http://www.w3.org/2000/svg">
<g clip-path="url(#clip0_131_603)">
<path d="M51 25.5C51 11.4167 39.5833 0 25.5 0C11.4167 0 0 11.4167 0 25.5C0 39.5833 11.4167 51 25.5 51C39.5833 51 51 39.5833 51 25.5Z" fill="#F1AC00"/>
<path d="M36.8111 4.25C36.4666 4.25 36.1873 4.52929 36.1873 4.87378V14.8542C36.1873 15.244 35.8702 15.5612 35.4804 15.5612C35.0906 15.5612 34.7735 15.244 34.7735 14.8542V4.87378C34.7735 4.52929 34.4942 4.25 34.1497 4.25C33.8052 4.25 33.5259 4.52929 33.5259 4.87378V14.8542C33.5259 15.244 33.2088 15.5612 32.819 15.5612C32.4291 15.5612 32.112 15.244 32.112 14.8542V4.87378C32.112 4.52929 31.8327 4.25 31.4882 4.25C31.1437 4.25 30.8645 4.52929 30.8645 4.87378V14.8542C30.8645 15.244 30.5473 15.5612 30.1575 15.5612C29.7677 15.5612 29.4506 15.244 29.4506 14.8542V4.87378C29.4506 4.52929 29.1713 4.25 28.8268 4.25C28.4823 4.25 28.203 4.52929 28.203 4.87378V18.181C28.203 19.2587 29.0798 20.1355 30.1575 20.1355C30.5473 20.1355 30.8645 20.4526 30.8645 20.8425V26.9479C29.7201 27.2285 28.8684 28.2625 28.8684 29.4922V42.7994C28.8684 44.9777 30.6406 46.75 32.819 46.75C34.9973 46.75 36.7695 44.9777 36.7695 42.7994V29.4922C36.7695 28.2625 35.9178 27.2286 34.7735 26.9479V20.8425C34.7735 20.4526 35.0906 20.1355 35.4804 20.1355C36.5581 20.1355 37.4349 19.2587 37.4349 18.181V4.87378C37.4349 4.52929 37.1556 4.25 36.8111 4.25ZM35.522 29.4922V42.7994C35.522 44.2898 34.3094 45.5025 32.819 45.5025C31.3285 45.5025 30.1159 44.2898 30.1159 42.7994V29.4922C30.1159 28.7355 30.7315 28.1199 31.4882 28.1199H34.1497C34.9064 28.1199 35.522 28.7355 35.522 29.4922ZM35.4804 18.888C34.4027 18.888 33.5259 19.7647 33.5259 20.8425V26.8723H32.112V20.8425C32.112 19.7647 31.2352 18.888 30.1575 18.888C29.7677 18.888 29.4506 18.5708 29.4506 18.181V16.6759C29.67 16.7613 29.9082 16.8087 30.1575 16.8087C30.6712 16.8087 31.139 16.6092 31.4882 16.2839C31.8375 16.6092 32.3052 16.8087 32.819 16.8087C33.3327 16.8087 33.8004 16.6092 34.1497 16.2839C34.4989 16.6092 34.9667 16.8087 35.4804 16.8087C35.7297 16.8087 35.9679 16.7613 36.1873 16.6759V18.181C36.1873 18.5708 35.8702 18.888 35.4804 18.888Z" fill="#FFDC80" stroke="#FEECBE" stroke-width="1.30463"/>
<path d="M19.5117 4.25C17.8085 4.25 16.2826 5.21669 15.2149 6.972C14.1356 8.74652 13.5651 11.2421 13.5651 14.1888C13.5651 16.3223 14.7206 18.3028 16.5808 19.3574C17.1831 19.6988 17.5572 20.3642 17.5572 21.094V26.9479C16.4129 27.2285 15.5611 28.2625 15.5611 29.4922V42.7994C15.5611 44.9777 17.3334 46.75 19.5117 46.75C21.69 46.75 23.4623 44.9777 23.4623 42.7994V29.4922C23.4623 28.2625 22.6106 27.2286 21.4662 26.9479V21.094C21.4662 20.3642 21.8404 19.6988 22.4427 19.3574C24.3028 18.3028 25.4584 16.3223 25.4584 14.1888C25.4584 11.2421 24.8879 8.74652 23.8086 6.972C22.7409 5.21669 21.215 4.25 19.5117 4.25ZM22.2148 29.4922V42.7994C22.2148 44.2898 21.0021 45.5025 19.5117 45.5025C18.0213 45.5025 16.8087 44.2898 16.8087 42.7994V29.4922C16.8087 28.7355 17.4243 28.1199 18.181 28.1199H20.8425C21.5991 28.1199 22.2148 28.7355 22.2148 29.4922ZM21.8274 18.2721C20.8351 18.8347 20.2187 19.916 20.2187 21.094V26.8723H18.8048V21.094C18.8048 19.916 18.1883 18.8347 17.1961 18.2721C15.7259 17.4386 14.8126 15.874 14.8126 14.1888C14.8126 11.4708 15.3203 9.19946 16.2808 7.62023C17.1255 6.23161 18.2427 5.49755 19.5117 5.49755C20.7807 5.49755 21.898 6.23161 22.7427 7.62023C23.7032 9.19946 24.2109 11.4708 24.2109 14.1888C24.2109 15.874 23.2976 17.4386 21.8274 18.2721Z" fill="#FFDC80" stroke="#FEECBE" stroke-width="1.30463"/>
<path d="M20.1771 29.5337C19.8326 29.5337 19.5533 29.813 19.5533 30.1575V31.4882C19.5533 31.8327 19.8326 32.112 20.1771 32.112C20.5216 32.112 20.8009 31.8327 20.8009 31.4882V30.1575C20.8009 29.813 20.5216 29.5337 20.1771 29.5337Z" fill="#FFDC80" stroke="#FEECBE" stroke-width="1.30463"/>
<path d="M20.1771 33.5259C19.8326 33.5259 19.5533 33.8052 19.5533 34.1497V40.1379C19.5533 40.4824 19.8326 40.7617 20.1771 40.7617C20.5216 40.7617 20.8009 40.4824 20.8009 40.1379V34.1497C20.8009 33.8052 20.5216 33.5259 20.1771 33.5259Z" fill="#FFDC80" stroke="#FEECBE" stroke-width="1.30463"/>
<path d="M33.4843 29.5337C33.1398 29.5337 32.8605 29.813 32.8605 30.1575V31.4882C32.8605 31.8327 33.1398 32.112 33.4843 32.112C33.8288 32.112 34.1081 31.8327 34.1081 31.4882V30.1575C34.1081 29.813 33.8288 29.5337 33.4843 29.5337Z" fill="#FFDC80" stroke="#FEECBE" stroke-width="1.30463"/>
<path d="M33.4843 33.5259C33.1398 33.5259 32.8605 33.8052 32.8605 34.1497V40.1379C32.8605 40.4824 33.1398 40.7617 33.4843 40.7617C33.8288 40.7617 34.1081 40.4824 34.1081 40.1379V34.1497C34.1081 33.8052 33.8288 33.5259 33.4843 33.5259Z" fill="#FFDC80" stroke="#FEECBE" stroke-width="1.30463"/>
</g>
<path d="M61.05 39V20.75H65.15V39H61.05ZM64.65 31.65V28.25H71.7V31.65H64.65ZM64.65 24.15V20.75H72V24.15H64.65ZM83.7404 39.475C82.0904 39.475 80.6488 39.1917 79.4154 38.625C78.1988 38.0417 77.1904 37.2833 76.3904 36.35C75.5904 35.4 74.9904 34.375 74.5904 33.275C74.2071 32.175 74.0154 31.1167 74.0154 30.1V29.55C74.0154 28.4167 74.2154 27.3 74.6154 26.2C75.0321 25.0833 75.6488 24.075 76.4654 23.175C77.2821 22.275 78.2988 21.5583 79.5154 21.025C80.7321 20.475 82.1404 20.2 83.7404 20.2C85.3404 20.2 86.7488 20.475 87.9654 21.025C89.1821 21.5583 90.1988 22.275 91.0154 23.175C91.8321 24.075 92.4488 25.0833 92.8654 26.2C93.2821 27.3 93.4904 28.4167 93.4904 29.55V30.1C93.4904 31.1167 93.2904 32.175 92.8904 33.275C92.4904 34.375 91.8904 35.4 91.0904 36.35C90.2904 37.2833 89.2738 38.0417 88.0404 38.625C86.8238 39.1917 85.3904 39.475 83.7404 39.475ZM83.7404 35.65C84.6071 35.65 85.3821 35.5 86.0654 35.2C86.7654 34.9 87.3571 34.4833 87.8404 33.95C88.3404 33.4167 88.7154 32.8 88.9654 32.1C89.2154 31.4 89.3404 30.65 89.3404 29.85C89.3404 29 89.2071 28.225 88.9404 27.525C88.6904 26.8083 88.3154 26.1917 87.8154 25.675C87.3321 25.1417 86.7488 24.7333 86.0654 24.45C85.3821 24.1667 84.6071 24.025 83.7404 24.025C82.8738 24.025 82.0988 24.1667 81.4154 24.45C80.7321 24.7333 80.1404 25.1417 79.6404 25.675C79.1571 26.1917 78.7904 26.8083 78.5404 27.525C78.2904 28.225 78.1654 29 78.1654 29.85C78.1654 30.65 78.2904 31.4 78.5404 32.1C78.7904 32.8 79.1571 33.4167 79.6404 33.95C80.1404 34.4833 80.7321 34.9 81.4154 35.2C82.0988 35.5 82.8738 35.65 83.7404 35.65ZM105.347 39.475C103.697 39.475 102.255 39.1917 101.022 38.625C99.8052 38.0417 98.7969 37.2833 97.9969 36.35C97.1969 35.4 96.5969 34.375 96.1969 33.275C95.8135 32.175 95.6219 31.1167 95.6219 30.1V29.55C95.6219 28.4167 95.8219 27.3 96.2219 26.2C96.6385 25.0833 97.2552 24.075 98.0719 23.175C98.8885 22.275 99.9052 21.5583 101.122 21.025C102.339 20.475 103.747 20.2 105.347 20.2C106.947 20.2 108.355 20.475 109.572 21.025C110.789 21.5583 111.805 22.275 112.622 23.175C113.439 24.075 114.055 25.0833 114.472 26.2C114.889 27.3 115.097 28.4167 115.097 29.55V30.1C115.097 31.1167 114.897 32.175 114.497 33.275C114.097 34.375 113.497 35.4 112.697 36.35C111.897 37.2833 110.88 38.0417 109.647 38.625C108.43 39.1917 106.997 39.475 105.347 39.475ZM105.347 35.65C106.214 35.65 106.989 35.5 107.672 35.2C108.372 34.9 108.964 34.4833 109.447 33.95C109.947 33.4167 110.322 32.8 110.572 32.1C110.822 31.4 110.947 30.65 110.947 29.85C110.947 29 110.814 28.225 110.547 27.525C110.297 26.8083 109.922 26.1917 109.422 25.675C108.939 25.1417 108.355 24.7333 107.672 24.45C106.989 24.1667 106.214 24.025 105.347 24.025C104.48 24.025 103.705 24.1667 103.022 24.45C102.339 24.7333 101.747 25.1417 101.247 25.675C100.764 26.1917 100.397 26.8083 100.147 27.525C99.8969 28.225 99.7719 29 99.7719 29.85C99.7719 30.65 99.8969 31.4 100.147 32.1C100.397 32.8 100.764 33.4167 101.247 33.95C101.747 34.4833 102.339 34.9 103.022 35.2C103.705 35.5 104.48 35.65 105.347 35.65ZM121.803 39.1V35.275H125.203C126.053 35.275 126.82 35.15 127.503 34.9C128.187 34.6333 128.77 34.2667 129.253 33.8C129.737 33.3167 130.103 32.7417 130.353 32.075C130.603 31.3917 130.728 30.6417 130.728 29.825C130.728 28.975 130.603 28.2167 130.353 27.55C130.103 26.8833 129.737 26.3167 129.253 25.85C128.77 25.3833 128.187 25.0333 127.503 24.8C126.82 24.55 126.053 24.425 125.203 24.425H121.803V20.6H124.978C126.628 20.6 128.07 20.8417 129.303 21.325C130.537 21.8083 131.57 22.4667 132.403 23.3C133.237 24.1333 133.853 25.0917 134.253 26.175C134.67 27.2417 134.878 28.3667 134.878 29.55V30.1C134.878 31.2 134.67 32.2917 134.253 33.375C133.853 34.4417 133.237 35.4083 132.403 36.275C131.57 37.125 130.537 37.8083 129.303 38.325C128.07 38.8417 126.628 39.1 124.978 39.1H121.803ZM118.203 39.1V20.6H122.303V39.1H118.203ZM137.785 39V20.75H141.885V39H137.785ZM146.035 39V20.75H150.035V39H146.035ZM149.535 39V35.6H157.51V39H149.535ZM149.535 31.425V28.025H156.935V31.425H149.535ZM149.535 24.15V20.75H157.335V24.15H149.535ZM167.107 39.475C165.457 39.475 164.065 39.2167 162.932 38.7C161.799 38.1667 160.94 37.45 160.357 36.55C159.774 35.6333 159.482 34.5833 159.482 33.4H163.457C163.457 33.8667 163.582 34.3 163.832 34.7C164.099 35.1 164.499 35.425 165.032 35.675C165.565 35.9083 166.257 36.025 167.107 36.025C167.874 36.025 168.515 35.925 169.032 35.725C169.549 35.525 169.94 35.25 170.207 34.9C170.474 34.5333 170.607 34.1167 170.607 33.65C170.607 33.0667 170.357 32.6083 169.857 32.275C169.357 31.925 168.549 31.7 167.432 31.6L166.057 31.475C164.24 31.325 162.79 30.7583 161.707 29.775C160.624 28.7917 160.082 27.4917 160.082 25.875C160.082 24.7083 160.357 23.7 160.907 22.85C161.474 22 162.257 21.35 163.257 20.9C164.257 20.4333 165.44 20.2 166.807 20.2C168.24 20.2 169.465 20.45 170.482 20.95C171.515 21.4333 172.307 22.125 172.857 23.025C173.407 23.9083 173.682 24.95 173.682 26.15H169.682C169.682 25.7 169.574 25.2917 169.357 24.925C169.14 24.5417 168.815 24.2333 168.382 24C167.965 23.7667 167.44 23.65 166.807 23.65C166.207 23.65 165.699 23.75 165.282 23.95C164.882 24.15 164.582 24.425 164.382 24.775C164.182 25.1083 164.082 25.475 164.082 25.875C164.082 26.3917 164.265 26.8417 164.632 27.225C164.999 27.6083 165.599 27.8333 166.432 27.9L167.832 28.025C169.165 28.1417 170.34 28.4333 171.357 28.9C172.374 29.35 173.165 29.975 173.732 30.775C174.315 31.5583 174.607 32.5167 174.607 33.65C174.607 34.8167 174.299 35.8417 173.682 36.725C173.082 37.5917 172.224 38.2667 171.107 38.75C169.99 39.2333 168.657 39.475 167.107 39.475Z" fill="#F1AC00"/>
<defs>
<clipPath id="clip0_131_603">
<rect width="51" height="51" fill="white"/>
</clipPath>
</defs>
</svg>
