<svg width="200" height="53" viewBox="0 0 200 53" fill="none" xmlns="http://www.w3.org/2000/svg">
<g clip-path="url(#clip0_132_628)">
<path d="M58.0592 26.3078C58.0592 11.7784 45.0622 0 29.0296 0C12.997 0 0 11.7784 0 26.3078C0 40.8372 12.997 52.6156 29.0296 52.6156C45.0622 52.6156 58.0592 40.8372 58.0592 26.3078Z" fill="white"/>
<path d="M41.9066 4.38477C41.5144 4.38477 41.1964 4.6729 41.1964 5.0283V15.3249C41.1964 15.7271 40.8354 16.0542 40.3916 16.0542C39.9479 16.0542 39.5868 15.7271 39.5868 15.3249V5.0283C39.5868 4.6729 39.2689 4.38477 38.8767 4.38477C38.4845 4.38477 38.1666 4.6729 38.1666 5.0283V15.3249C38.1666 15.7271 37.8056 16.0542 37.3618 16.0542C36.918 16.0542 36.557 15.7271 36.557 15.3249V5.0283C36.557 4.6729 36.2391 4.38477 35.8469 4.38477C35.4547 4.38477 35.1368 4.6729 35.1368 5.0283V15.3249C35.1368 15.7271 34.7757 16.0542 34.332 16.0542C33.8882 16.0542 33.5272 15.7271 33.5272 15.3249V5.0283C33.5272 4.6729 33.2092 4.38477 32.8171 4.38477C32.4249 4.38477 32.1069 4.6729 32.1069 5.0283V18.7571C32.1069 19.869 33.1051 20.7735 34.332 20.7735C34.7757 20.7735 35.1368 21.1007 35.1368 21.5029V27.8017C33.834 28.0912 32.8644 29.1579 32.8644 30.4266V44.1554C32.8644 46.4027 34.882 48.2311 37.3618 48.2311C39.8416 48.2311 41.8592 46.4027 41.8592 44.1554V30.4266C41.8592 29.1579 40.8896 28.0913 39.5868 27.8017V21.5029C39.5868 21.1007 39.9479 20.7735 40.3916 20.7735C41.6185 20.7735 42.6167 19.869 42.6167 18.7571V5.0283C42.6167 4.6729 42.2987 4.38477 41.9066 4.38477ZM40.439 30.4266V44.1554C40.439 45.693 39.0585 46.944 37.3618 46.944C35.6651 46.944 34.2846 45.693 34.2846 44.1554V30.4266C34.2846 29.6459 34.9855 29.0108 35.8469 29.0108H38.8767C39.7381 29.0108 40.439 29.6459 40.439 30.4266ZM40.3916 19.4864C39.1647 19.4864 38.1666 20.391 38.1666 21.5029V27.7237H36.557V21.5029C36.557 20.391 35.5589 19.4864 34.332 19.4864C33.8882 19.4864 33.5272 19.1593 33.5272 18.7571V17.2043C33.7769 17.2924 34.0482 17.3413 34.332 17.3413C34.9168 17.3413 35.4493 17.1355 35.8469 16.7999C36.2445 17.1355 36.777 17.3413 37.3618 17.3413C37.9467 17.3413 38.4792 17.1355 38.8767 16.7999C39.2743 17.1355 39.8068 17.3413 40.3916 17.3413C40.6754 17.3413 40.9467 17.2924 41.1964 17.2043V18.7571C41.1964 19.1593 40.8354 19.4864 40.3916 19.4864Z" fill="white" stroke="#FEECBE" stroke-width="1.30463"/>
<path d="M21.7698 4C19.8308 4 18.0937 4.99731 16.8782 6.80823C15.6495 8.63896 15 11.2136 15 14.2537C15 16.4548 16.3155 18.498 18.4332 19.586C19.1189 19.9382 19.5448 20.6247 19.5448 21.3776V27.4169C18.242 27.7065 17.2724 28.7732 17.2724 30.0418V43.7706C17.2724 46.0179 19.29 47.8463 21.7698 47.8463C24.2496 47.8463 26.2672 46.0179 26.2672 43.7706V30.0418C26.2672 28.7732 25.2976 27.7065 23.9948 27.4169V21.3776C23.9948 20.6247 24.4208 19.9382 25.1064 19.586C27.2241 18.498 28.5396 16.4548 28.5396 14.2537C28.5396 11.2136 27.8901 8.63896 26.6614 6.80823C25.4459 4.99731 23.7088 4 21.7698 4ZM24.847 30.0418V43.7706C24.847 45.3082 23.4665 46.5593 21.7698 46.5593C20.0731 46.5593 18.6926 45.3082 18.6926 43.7706V30.0418C18.6926 29.2612 19.3935 28.626 20.2549 28.626H23.2847C24.1461 28.626 24.847 29.2612 24.847 30.0418ZM24.406 18.4663C23.2764 19.0467 22.5746 20.1622 22.5746 21.3776V27.339H20.965V21.3776C20.965 20.1622 20.2632 19.0467 19.1336 18.4663C17.4599 17.6064 16.4202 15.9923 16.4202 14.2537C16.4202 11.4496 16.9982 9.10625 18.0917 7.47699C19.0533 6.04439 20.3251 5.28707 21.7698 5.28707C23.2145 5.28707 24.4863 6.04439 25.4479 7.47699C26.5414 9.10625 27.1193 11.4496 27.1193 14.2537C27.1193 15.9923 26.0796 17.6064 24.406 18.4663Z" fill="white" stroke="#FEECBE" stroke-width="1.30463"/>
<path d="M22.9699 30.4692C22.5777 30.4692 22.2598 30.7574 22.2598 31.1128V32.4857C22.2598 32.8411 22.5777 33.1292 22.9699 33.1292C23.3621 33.1292 23.68 32.8411 23.68 32.4857V31.1128C23.68 30.7574 23.3621 30.4692 22.9699 30.4692Z" fill="white" stroke="#FEECBE" stroke-width="1.30463"/>
<path d="M22.9699 34.5879C22.5777 34.5879 22.2598 34.876 22.2598 35.2314V41.4094C22.2598 41.7648 22.5777 42.0529 22.9699 42.0529C23.3621 42.0529 23.68 41.7648 23.68 41.4094V35.2314C23.68 34.876 23.3621 34.5879 22.9699 34.5879Z" fill="white" stroke="#FEECBE" stroke-width="1.30463"/>
<path d="M38.1193 30.4692C37.7271 30.4692 37.4092 30.7574 37.4092 31.1128V32.4857C37.4092 32.8411 37.7271 33.1292 38.1193 33.1292C38.5115 33.1292 38.8294 32.8411 38.8294 32.4857V31.1128C38.8294 30.7574 38.5115 30.4692 38.1193 30.4692Z" fill="white" stroke="#FEECBE" stroke-width="1.30463"/>
<path d="M38.1193 34.5879C37.7271 34.5879 37.4092 34.876 37.4092 35.2314V41.4094C37.4092 41.7648 37.7271 42.0529 38.1193 42.0529C38.5115 42.0529 38.8294 41.7648 38.8294 41.4094V35.2314C38.8294 34.876 38.5115 34.5879 38.1193 34.5879Z" fill="white" stroke="#FEECBE" stroke-width="1.30463"/>
</g>
<path d="M69.1012 41.4434V21.0034H73.6932V41.4434H69.1012ZM73.1332 33.2114V29.4034H81.0292V33.2114H73.1332ZM73.1332 24.8114V21.0034H81.3652V24.8114H73.1332ZM94.5145 41.9754C92.6665 41.9754 91.0518 41.658 89.6705 41.0234C88.3078 40.37 87.1785 39.5207 86.2825 38.4754C85.3865 37.4114 84.7145 36.2634 84.2665 35.0314C83.8371 33.7994 83.6225 32.614 83.6225 31.4754V30.8594C83.6225 29.59 83.8465 28.3394 84.2945 27.1074C84.7611 25.8567 85.4518 24.7274 86.3665 23.7194C87.2811 22.7114 88.4198 21.9087 89.7825 21.3114C91.1451 20.6954 92.7225 20.3874 94.5145 20.3874C96.3065 20.3874 97.8838 20.6954 99.2465 21.3114C100.609 21.9087 101.748 22.7114 102.662 23.7194C103.577 24.7274 104.268 25.8567 104.734 27.1074C105.201 28.3394 105.434 29.59 105.434 30.8594V31.4754C105.434 32.614 105.21 33.7994 104.762 35.0314C104.314 36.2634 103.642 37.4114 102.746 38.4754C101.85 39.5207 100.712 40.37 99.3305 41.0234C97.9678 41.658 96.3625 41.9754 94.5145 41.9754ZM94.5145 37.6914C95.4851 37.6914 96.3531 37.5234 97.1185 37.1874C97.9025 36.8514 98.5651 36.3847 99.1065 35.7874C99.6665 35.19 100.086 34.4994 100.366 33.7154C100.646 32.9314 100.786 32.0914 100.786 31.1954C100.786 30.2434 100.637 29.3754 100.338 28.5914C100.058 27.7887 99.6385 27.098 99.0785 26.5194C98.5371 25.922 97.8838 25.4647 97.1185 25.1474C96.3531 24.83 95.4851 24.6714 94.5145 24.6714C93.5438 24.6714 92.6758 24.83 91.9105 25.1474C91.1451 25.4647 90.4825 25.922 89.9225 26.5194C89.3811 27.098 88.9705 27.7887 88.6905 28.5914C88.4105 29.3754 88.2705 30.2434 88.2705 31.1954C88.2705 32.0914 88.4105 32.9314 88.6905 33.7154C88.9705 34.4994 89.3811 35.19 89.9225 35.7874C90.4825 36.3847 91.1451 36.8514 91.9105 37.1874C92.6758 37.5234 93.5438 37.6914 94.5145 37.6914ZM118.714 41.9754C116.866 41.9754 115.251 41.658 113.87 41.0234C112.507 40.37 111.378 39.5207 110.482 38.4754C109.586 37.4114 108.914 36.2634 108.466 35.0314C108.036 33.7994 107.822 32.614 107.822 31.4754V30.8594C107.822 29.59 108.046 28.3394 108.494 27.1074C108.96 25.8567 109.651 24.7274 110.566 23.7194C111.48 22.7114 112.619 21.9087 113.982 21.3114C115.344 20.6954 116.922 20.3874 118.714 20.3874C120.506 20.3874 122.083 20.6954 123.446 21.3114C124.808 21.9087 125.947 22.7114 126.862 23.7194C127.776 24.7274 128.467 25.8567 128.934 27.1074C129.4 28.3394 129.634 29.59 129.634 30.8594V31.4754C129.634 32.614 129.41 33.7994 128.962 35.0314C128.514 36.2634 127.842 37.4114 126.946 38.4754C126.05 39.5207 124.911 40.37 123.53 41.0234C122.167 41.658 120.562 41.9754 118.714 41.9754ZM118.714 37.6914C119.684 37.6914 120.552 37.5234 121.318 37.1874C122.102 36.8514 122.764 36.3847 123.306 35.7874C123.866 35.19 124.286 34.4994 124.566 33.7154C124.846 32.9314 124.986 32.0914 124.986 31.1954C124.986 30.2434 124.836 29.3754 124.538 28.5914C124.258 27.7887 123.838 27.098 123.278 26.5194C122.736 25.922 122.083 25.4647 121.318 25.1474C120.552 24.83 119.684 24.6714 118.714 24.6714C117.743 24.6714 116.875 24.83 116.11 25.1474C115.344 25.4647 114.682 25.922 114.122 26.5194C113.58 27.098 113.17 27.7887 112.89 28.5914C112.61 29.3754 112.47 30.2434 112.47 31.1954C112.47 32.0914 112.61 32.9314 112.89 33.7154C113.17 34.4994 113.58 35.19 114.122 35.7874C114.682 36.3847 115.344 36.8514 116.11 37.1874C116.875 37.5234 117.743 37.6914 118.714 37.6914ZM137.145 41.5554V37.2714H140.953C141.905 37.2714 142.764 37.1314 143.529 36.8514C144.294 36.5527 144.948 36.142 145.489 35.6194C146.03 35.078 146.441 34.434 146.721 33.6874C147.001 32.922 147.141 32.082 147.141 31.1674C147.141 30.2154 147.001 29.366 146.721 28.6194C146.441 27.8727 146.03 27.238 145.489 26.7154C144.948 26.1927 144.294 25.8007 143.529 25.5394C142.764 25.2594 141.905 25.1194 140.953 25.1194H137.145V20.8354H140.701C142.549 20.8354 144.164 21.106 145.545 21.6474C146.926 22.1887 148.084 22.926 149.017 23.8594C149.95 24.7927 150.641 25.866 151.089 27.0794C151.556 28.274 151.789 29.534 151.789 30.8594V31.4754C151.789 32.7074 151.556 33.93 151.089 35.1434C150.641 36.338 149.95 37.4207 149.017 38.3914C148.084 39.3434 146.926 40.1087 145.545 40.6874C144.164 41.266 142.549 41.5554 140.701 41.5554H137.145ZM133.113 41.5554V20.8354H137.705V41.5554H133.113ZM155.044 41.4434V21.0034H159.636V41.4434H155.044ZM164.285 41.4434V21.0034H168.765V41.4434H164.285ZM168.205 41.4434V37.6354H177.137V41.4434H168.205ZM168.205 32.9594V29.1514H176.493V32.9594H168.205ZM168.205 24.8114V21.0034H176.941V24.8114H168.205ZM187.885 41.9754C186.037 41.9754 184.478 41.686 183.209 41.1074C181.94 40.51 180.978 39.7074 180.325 38.6994C179.672 37.6727 179.345 36.4967 179.345 35.1714H183.797C183.797 35.694 183.937 36.1794 184.217 36.6274C184.516 37.0754 184.964 37.4394 185.561 37.7194C186.158 37.9807 186.933 38.1114 187.885 38.1114C188.744 38.1114 189.462 37.9994 190.041 37.7754C190.62 37.5514 191.058 37.2434 191.357 36.8514C191.656 36.4407 191.805 35.974 191.805 35.4514C191.805 34.798 191.525 34.2847 190.965 33.9114C190.405 33.5194 189.5 33.2674 188.249 33.1554L186.709 33.0154C184.674 32.8474 183.05 32.2127 181.837 31.1114C180.624 30.01 180.017 28.554 180.017 26.7434C180.017 25.4367 180.325 24.3074 180.941 23.3554C181.576 22.4034 182.453 21.6754 183.573 21.1714C184.693 20.6487 186.018 20.3874 187.549 20.3874C189.154 20.3874 190.526 20.6674 191.665 21.2274C192.822 21.7687 193.709 22.5434 194.325 23.5514C194.941 24.5407 195.249 25.7074 195.249 27.0514H190.769C190.769 26.5474 190.648 26.09 190.405 25.6794C190.162 25.25 189.798 24.9047 189.313 24.6434C188.846 24.382 188.258 24.2514 187.549 24.2514C186.877 24.2514 186.308 24.3634 185.841 24.5874C185.393 24.8114 185.057 25.1194 184.833 25.5114C184.609 25.8847 184.497 26.2954 184.497 26.7434C184.497 27.322 184.702 27.826 185.113 28.2554C185.524 28.6847 186.196 28.9367 187.129 29.0114L188.697 29.1514C190.19 29.282 191.506 29.6087 192.645 30.1314C193.784 30.6354 194.67 31.3354 195.305 32.2314C195.958 33.1087 196.285 34.182 196.285 35.4514C196.285 36.758 195.94 37.906 195.249 38.8954C194.577 39.866 193.616 40.622 192.365 41.1634C191.114 41.7047 189.621 41.9754 187.885 41.9754Z" fill="white"/>
<defs>
<clipPath id="clip0_132_628">
<rect width="58.0592" height="52.6156" fill="white"/>
</clipPath>
</defs>
</svg>
