<svg width="22" height="21" viewBox="0 0 22 21" fill="none" xmlns="http://www.w3.org/2000/svg">
<path id="Vector" d="M0 2.24533V9.25314C0 10.05 0.329018 10.8141 0.918304 11.3766L9.56116 19.6266C10.7888 20.7985 12.7777 20.7985 14.0054 19.6266L20.5612 13.3688C21.7888 12.1969 21.7888 10.2985 20.5612 9.12658L11.9183 0.876579C11.329 0.314079 10.5286 1.62857e-05 9.69375 1.62857e-05H2.35714C1.0558 -0.00467121 0 1.00314 0 2.24533ZM5.5 3.74533C5.91677 3.74533 6.31647 3.90336 6.61117 4.18467C6.90587 4.46597 7.07143 4.8475 7.07143 5.24533C7.07143 5.64315 6.90587 6.02468 6.61117 6.30599C6.31647 6.58729 5.91677 6.74533 5.5 6.74533C5.08323 6.74533 4.68353 6.58729 4.38883 6.30599C4.09413 6.02468 3.92857 5.64315 3.92857 5.24533C3.92857 4.8475 4.09413 4.46597 4.38883 4.18467C4.68353 3.90336 5.08323 3.74533 5.5 3.74533Z" fill="black"/>
</svg>
